name rise49.25peak52.1432fall72.8391.mot
datacolumns 19
datarows 11
range 17.94659700000000 17.96326400000000
endheader
time	ground_force1_vx	ground_force1_vy	ground_force1_vz	ground_force1_px	ground_force1_py	ground_force1_pz	ground_force2_vx	ground_force2_vy	ground_force2_vz	ground_force2_px	ground_force2_py	ground_force2_pz	ground_torque1_x	ground_torque1_y	ground_torque1_z	ground_torque2_x	ground_torque2_y	ground_torque2_z	
17.94659700000000	-6.47109500000000	46.87425500000000	-15.21658700000000	0.30918600000000	0.00000000000000	0.05957900000000	-67.28483600000000	781.30968199999995	-52.78090700000000	0.11000300000000	0.00000000000000	-0.10996300000000	0.00000000000000	-10.57159200000000	0.00000000000000	0.00000000000000	-23.97714000000000	0.00000000000000	
17.94826700000000	-6.84380000000000	53.93718800000000	-16.69739400000000	0.31326200000000	0.00000000000000	0.06097800000000	-68.10828100000001	777.90034500000002	-52.40637200000000	0.10902600000000	0.00000000000000	-0.10993300000000	0.00000000000000	-11.68806200000000	0.00000000000000	0.00000000000000	-24.00957500000000	0.00000000000000	
17.94993400000000	-7.06705300000000	61.02539900000000	-17.97922000000000	0.31704400000000	0.00000000000000	0.06225300000000	-68.93603700000000	774.35523799999999	-52.00874200000000	0.10804800000000	0.00000000000000	-0.10990000000000	0.00000000000000	-12.67961200000000	0.00000000000000	0.00000000000000	-24.04287900000000	0.00000000000000	
17.95160000000000	-7.13133200000000	68.07281900000000	-19.03963400000000	0.32057800000000	0.00000000000000	0.06342300000000	-69.76650500000000	770.67106500000000	-51.58736900000000	0.10707100000000	0.00000000000000	-0.10986500000000	0.00000000000000	-13.52866000000000	0.00000000000000	0.00000000000000	-24.07669500000000	0.00000000000000	
17.95326100000000	-7.03409700000000	75.03689600000000	-19.86882500000000	0.32390200000000	0.00000000000000	0.06450200000000	-70.59798700000000	766.84449199999995	-51.14164600000000	0.10609500000000	0.00000000000000	-0.10982700000000	0.00000000000000	-14.22636700000000	0.00000000000000	0.00000000000000	-24.11064200000000	0.00000000000000	
17.95493400000000	-6.77908200000000	81.89840800000000	-20.46862700000000	0.32704500000000	0.00000000000000	0.06550000000000	-71.42868700000000	762.87216000000001	-50.67101300000000	0.10512200000000	0.00000000000000	-0.10978600000000	0.00000000000000	-14.77210700000000	0.00000000000000	0.00000000000000	-24.14431900000000	0.00000000000000	
17.95660000000000	-6.37519200000000	88.65939400000001	-20.85076300000000	0.33003200000000	0.00000000000000	0.06642900000000	-72.25671199999999	758.75070200000005	-50.17495700000000	0.10415300000000	0.00000000000000	-0.10974200000000	0.00000000000000	-15.17236000000000	0.00000000000000	0.00000000000000	-24.17730400000000	0.00000000000000	
17.95826600000000	-5.83517400000000	95.33967199999999	-21.03456900000000	0.33288200000000	0.00000000000000	0.06729500000000	-73.08008100000001	754.47675200000003	-49.65302200000000	0.10318900000000	0.00000000000000	-0.10969400000000	0.00000000000000	-15.43919900000000	0.00000000000000	0.00000000000000	-24.20915800000000	0.00000000000000	
17.95993400000000	-5.17419400000000	101.97250500000000	-21.04449900000000	0.33561200000000	0.00000000000000	0.06810600000000	-73.89672500000000	750.04696600000000	-49.10480700000000	0.10223200000000	0.00000000000000	-0.10964200000000	0.00000000000000	-15.58858700000000	0.00000000000000	0.00000000000000	-24.23942300000000	0.00000000000000	
17.96160900000000	-4.40847500000000	108.59990999999999	-20.90763000000000	0.33823800000000	0.00000000000000	0.06886800000000	-74.70449600000001	745.45804099999998	-48.52997400000000	0.10128200000000	0.00000000000000	-0.10958700000000	0.00000000000000	-15.63864500000000	0.00000000000000	0.00000000000000	-24.26762200000000	0.00000000000000	
17.96326400000000	-3.55407100000000	115.26804600000000	-20.65138600000000	0.34076900000000	0.00000000000000	0.06958400000000	-75.50116800000001	740.70672700000000	-47.92824900000000	0.10034100000000	0.00000000000000	-0.10952700000000	0.00000000000000	-15.60803200000000	0.00000000000000	0.00000000000000	-24.29326600000000	0.00000000000000	
